<svg xmlns="http://www.w3.org/2000/svg" width="24.385" height="24.359" viewBox="0 0 24.385 24.359">
  <g id="Untitled-1" transform="translate(-53.111 -22.3)">
    <g id="Group_1" data-name="Group 1" transform="translate(53.111 22.3)">
      <path id="Path_1" data-name="Path 1" d="M66.554,40.925H60a3.1,3.1,0,0,1-3.137-2.652c-.109-.7-.132-1.423-.192-2.135q-.2-2.335-.388-4.671-.183-2.236-.361-4.473c-.062-.759-.126-1.52-.182-2.279-.016-.212-.089-.307-.32-.336-.509-.066-1.013-.175-1.518-.266a.913.913,0,0,1-.782-1.023.881.881,0,0,1,.986-.784c.7.078,1.394.2,2.089.309.281.043.565.083.846.136a.861.861,0,0,1,.761.806c.082.854.161,1.708.219,2.562.049.711.3.967,1.023.967q8.014,0,16.029,0a2.28,2.28,0,0,1,1.7.59,2.494,2.494,0,0,1,.685,2.287q-.518,3.777-1.072,7.55a6.08,6.08,0,0,1-.419,1.675,2.9,2.9,0,0,1-2.77,1.736C70.982,40.941,68.769,40.925,66.554,40.925Zm3.015-7.357h1.687a.944.944,0,0,0,.942-.978.909.909,0,0,0-.978-.926c-1.1,0-2.192,0-3.289,0a1.1,1.1,0,0,0-.441.085.955.955,0,0,0,.421,1.813C68.463,33.577,69.016,33.568,69.569,33.568Z" transform="translate(-53.111 -22.3)" fill="#707070"/>
      <path id="Path_2" data-name="Path 2" d="M152.042,130.417a1.826,1.826,0,1,1-3.652-.012,1.826,1.826,0,1,1,3.652.012Z" transform="translate(-129.894 -107.924)" fill="#707070"/>
      <path id="Path_3" data-name="Path 3" d="M81.3,130.412a1.835,1.835,0,0,1-1.794,1.871,1.868,1.868,0,1,1,1.794-1.871Z" transform="translate(-72.877 -107.924)" fill="#707070"/>
    </g>
  </g>
</svg>
