<svg xmlns="http://www.w3.org/2000/svg" width="141.26" height="46.944" viewBox="0 0 141.26 46.944">
  <path id="chery" d="M221.825,77.391a10.154,10.154,0,0,1-10.108-1.048l-3.879-2.8L181.717,54.683l-.089-.061-.08-.056-.183-.127a41.619,41.619,0,0,0-6.841-3.968c-.009,0-.019.014-.028.019-.193-.089-.39-.169-.588-.244-.019,0-.028-.014-.047-.019a9.635,9.635,0,0,0-1.923-.5q1.5.007,2.967.042l.654.014c16.342.4,30.86,2.68,41.025,6.1h0c9.365,3.15,15.035,7.268,15.035,11.772,0,3.592-3.6,6.935-9.8,9.737Zm-26.7,6.671a194.2,194.2,0,0,1-24.711,1.523A193.338,193.338,0,0,1,145.7,84.063c-6.906-1.241-3.578-5.91-1.772-7.913a.319.319,0,0,1,.056-.056c.437-.484.776-.8.837-.856.009,0,.009-.009.009-.009q1.777-1.791,3.6-3.545,5.874-5.67,12.191-10.86,1.883-1.551,3.761-3.014l.009,0c.132-.113.273-.216.414-.32.959-.715,3.4-2.341,5.614-2.337s4.65,1.622,5.609,2.337a1.064,1.064,0,0,1,.132.1l.108.085c.052.038.089.071.118.094l.042.033.019.014q1.9,1.481,3.766,3.014,6.3,5.183,12.186,10.86,1.826,1.756,3.606,3.554l.033.033c.113.1.414.39.79.8l0,0c1.787,1.961,5.275,6.728-1.707,7.983Zm-66.018-7.72A10.143,10.143,0,0,1,119,77.391c-6.2-2.8-9.807-6.149-9.807-9.737,0-4.5,5.675-8.627,15.04-11.772,10.165-3.418,24.687-5.7,41.029-6.1l.653-.014c.987-.024,1.975-.038,2.971-.042a9.952,9.952,0,0,0-1.923.5s-.019,0-.024,0c-.207.08-.409.165-.611.254-.009,0-.019-.014-.028-.019a41.821,41.821,0,0,0-6.841,3.968l-.179.127-.169.122L132.991,73.541l-3.883,2.8Zm88.467-24.114c-10.056-3-22.722-5.059-36.723-5.745q-5.014-.247-10.028-.254H170q-5.106.007-10.028.254c-14.006.686-26.671,2.741-36.728,5.745C108.84,56.526,99.78,62.76,99.78,69.7c0,5.877,6.5,11.255,17.24,15.369a102.547,102.547,0,0,0,15.026,4.339c4.56.983,9.488,1.8,14.7,2.412a202.685,202.685,0,0,0,23.667,1.354,202.685,202.685,0,0,0,23.667-1.354q7.4-.853,14.7-2.412A102.546,102.546,0,0,0,223.8,85.069c10.738-4.118,17.24-9.492,17.24-15.369,0-6.935-9.06-13.173-23.465-17.471Z" transform="translate(-99.78 -46.23)" fill="#707070"/>
</svg>
