<svg xmlns="http://www.w3.org/2000/svg" width="22.269" height="21.202" viewBox="0 0 22.269 21.202">
  <g id="heart" transform="translate(-60.958 -24.64)">
    <g id="Group_2" data-name="Group 2" transform="translate(60.958 24.64)">
      <path id="Path_4" data-name="Path 4" d="M76.375,24.64c.4.062.811.095,1.206.19a6.889,6.889,0,0,1,5.365,5.315,9.079,9.079,0,0,1-.63,6.154,15.362,15.362,0,0,1-4,5.281c-.638.564-1.3,1.1-1.967,1.632a.787.787,0,0,1-1.192-.116.82.82,0,0,1,.2-1.192,22.712,22.712,0,0,0,3.79-3.533,10.407,10.407,0,0,0,2.313-4.587,6.451,6.451,0,0,0-1.123-5.348,5.481,5.481,0,0,0-7.218-1.3c-.157.095-.307.2-.455.3a.828.828,0,0,1-1.14,0,5.468,5.468,0,0,0-3.745-1.1,5.392,5.392,0,0,0-4.97,4.178,7.506,7.506,0,0,0,.626,5.317,13.87,13.87,0,0,0,3.326,4.273,38.43,38.43,0,0,0,5.421,4.1.838.838,0,0,1,.457.863.794.794,0,0,1-.68.723.24.24,0,0,0-.067.038h-.105a4.36,4.36,0,0,1-.488-.231,39.665,39.665,0,0,1-5.667-4.285,14.973,14.973,0,0,1-3.761-5,9.03,9.03,0,0,1-.625-6.149,6.9,6.9,0,0,1,5.139-5.283,14.571,14.571,0,0,1,1.485-.247h.574a1.649,1.649,0,0,0,.2.041,7.081,7.081,0,0,1,3.288,1.04.3.3,0,0,0,.354-.01,6.669,6.669,0,0,1,2.036-.837c.473-.1.954-.159,1.432-.235C75.957,24.64,76.166,24.64,76.375,24.64Z" transform="translate(-60.958 -24.64)" fill="#707070"/>
      <path id="Path_5" data-name="Path 5" d="M146.332,50.58a4.6,4.6,0,0,1,.537.221,3.826,3.826,0,0,1,2.1,3.148.814.814,0,0,1-1.6.257c-.036-.16-.041-.328-.081-.487a2.149,2.149,0,0,0-1.334-1.554.8.8,0,0,1-.5-.9A.854.854,0,0,1,146.332,50.58Z" transform="translate(-130.867 -46.105)" fill="#707070"/>
    </g>
  </g>
</svg>
