<svg id="jak" xmlns="http://www.w3.org/2000/svg" width="94.147" height="71.542" viewBox="0 0 94.147 71.542">
  <g id="Group_3" data-name="Group 3" transform="translate(0 0)">
    <path id="Path_8" data-name="Path 8" d="M100.186,30.05c11.7.13,22.529,3.012,32.184,9.713a34.536,34.536,0,0,1,13.018,16.128c3.272,8.529,2.225,16.726-2.277,24.546-3.611,6.278-9.017,10.663-15.256,14.1a55.954,55.954,0,0,1-29.926,6.994c-12.3-.54-23.5-4.339-33.088-12.263A30.886,30.886,0,0,1,53.5,69.9,27.335,27.335,0,0,1,57.5,50.862c4.235-6.968,10.39-11.73,17.637-15.23A58.149,58.149,0,0,1,100.186,30.05Zm18.977,65.207c1.9-1.249,3.708-2.381,5.452-3.6,5.836-4.073,10.422-9.134,12.719-16.03a30.469,30.469,0,0,0,.937-16.921c-.306-1.288-.325-1.288-1.5-.982q-2.791.712-5.575,1.431-11.515,2.986-23.03,5.985c-1.418.371-1.431.39-.885,1.711Q112.635,79.689,118,92.518C118.357,93.357,118.715,94.2,119.163,95.257ZM81.2,95.289c.228-.481.332-.677.416-.878Q87.351,80.69,93.082,66.97c.605-1.451.605-1.47-.878-1.854-9.563-2.492-19.133-4.957-28.7-7.469-.846-.221-1.145.046-1.327.813a30.7,30.7,0,0,0,12.1,32.08C76.506,92.153,78.809,93.65,81.2,95.289Zm18.938-63.17a41.464,41.464,0,0,0-27.383,9.928,34.541,34.541,0,0,0-10.1,14.983c.494.039.774.085,1.054.085q15.711-.02,31.416-.026c.742,0,1.054-.221,1.178-1,1.178-7.456,2.394-14.9,3.6-22.354C99.985,33.251,100.043,32.75,100.134,32.119Zm.169,0c.059.566.078.982.143,1.386,1.2,7.456,2.433,14.9,3.611,22.36.15.956.533,1.236,1.49,1.236,10.351-.02,20.695.007,31.045.013.332,0,.657-.059.989-.091-.358-3.676-5.836-11.684-10.6-15.549A41.528,41.528,0,0,0,100.3,32.119Zm-.1,38.676c-6.232,8.262-12.322,16.336-18.522,24.553,6.662,2.752,13.363,4.346,20.421,3.988a47.751,47.751,0,0,0,16.609-4.008C112.515,87.118,106.438,79.064,100.206,70.8Z" transform="translate(-53.15 -30.05)" fill="#707070"/>
  </g>
</svg>
