<svg id="jeely" xmlns="http://www.w3.org/2000/svg" width="128.596" height="38.008" viewBox="0 0 128.596 38.008">
  <g id="Group_5" data-name="Group 5" transform="translate(0 0)">
    <path id="Path_11" data-name="Path 11" d="M117.236,57.136a2.45,2.45,0,0,0,.637.2c3.21.058,6.421.1,9.631.152,1.649.029,3.3.07,4.953.129.813.029.883.111.848.912-.181,4.713-.374,9.42-.55,14.133-.023.556-.31.713-.807.737-3.625.187-7.251.444-10.882.573-6.175.216-12.356.485-18.536.485-5.187,0-10.373-.339-15.56-.567-2.824-.123-5.643-.3-8.461-.479-1.8-.111-1.626-.134-1.69-1.7q-.219-5.578-.45-11.163c-.029-.772-.058-1.538-.111-2.31-.035-.5.152-.708.655-.7.842.018,1.69.012,2.532.006q6.464-.053,12.935-.117c.754-.006,1.5-.053,2.251-.105a1.594,1.594,0,0,0,.474-.2Q106.173,57.139,117.236,57.136Z" transform="translate(-40.618 -57.13)" fill="#707070"/>
    <path id="Path_12" data-name="Path 12" d="M210.9,69.188a6.357,6.357,0,0,0-.322,1.064.781.781,0,0,1-.836.807c-5.725.45-11.443.947-17.168,1.38-4.555.345-9.11.632-13.671.941-.55.035-1.1.058-1.649.094-.456.029-.62-.187-.6-.632q.2-4.289.38-8.578c.076-1.813.123-3.631.181-5.444.023-.7.105-.789.813-.772,4.625.088,9.245.129,13.87.287,4.216.14,8.426.374,12.636.637a7.4,7.4,0,0,1,4.035,1.123,4.26,4.26,0,0,1,1.889,3.093c.053.491.117.982.211,1.468a1.721,1.721,0,0,0,.234.462Q210.9,67.153,210.9,69.188Z" transform="translate(-82.311 -57.511)" fill="#707070"/>
    <path id="Path_13" data-name="Path 13" d="M105.649,108.2a75.326,75.326,0,0,1-12.209-.912c-4.368-.661-8.742-1.3-13.116-1.947L80,105.289c-1.012-.187-1.047-.216-1.134-1.216-.351-4.169-.69-8.333-1.041-12.5-.064-.784-.134-1.573-.2-2.357-.041-.456.158-.614.62-.585,3.187.211,6.368.4,9.555.608,8.064.515,16.139.55,24.208.4,5.058-.088,10.11-.439,15.168-.684,1.83-.088,3.661-.216,5.491-.339.491-.035.544.246.509.626-.211,2.321-.427,4.637-.632,6.958q-.333,3.868-.649,7.73c-.082,1.017-.111,1.117-1.123,1.3q-3.114.57-6.239,1.047c-2.485.374-4.976.684-7.461,1.058A66.805,66.805,0,0,1,105.649,108.2Z" transform="translate(-41.182 -70.204)" fill="#707070"/>
    <path id="Path_14" data-name="Path 14" d="M46.565,73.4q-5.017-.368-10.04-.743c-2.614-.193-5.233-.368-7.847-.573-2.871-.228-5.736-.485-8.607-.719-1.187-.1-2.38-.164-3.567-.281-.871-.088-.959-.193-1-1.053-.082-1.631-.234-3.263-.181-4.888a9.483,9.483,0,0,1,.62-3.2,4.177,4.177,0,0,1,3.222-2.579,35.559,35.559,0,0,1,4.853-.567c6.029-.246,12.063-.421,18.092-.608,1.924-.058,3.853-.064,5.777-.094.766-.012.819.064.848.848.17,4.122.357,8.245.532,12.367.023.567.035,1.134.047,1.707.012.421-.17.591-.608.544-.713-.076-1.427-.111-2.14-.164Z" transform="translate(-15.311 -57.528)" fill="#707070"/>
    <path id="Path_15" data-name="Path 15" d="M174.19,101.965q.482-5.342.959-10.683c.123-1.351.269-2.7.386-4.052.041-.462.222-.684.708-.713q4.394-.289,8.783-.608c4.444-.333,8.882-.69,13.326-1.041q4.412-.351,8.83-.725c.456-.041.912-.111,1.362-.17.427-.058.626.117.585.556-.485,5-2.579,8.958-7.245,11.3a38.736,38.736,0,0,1-8.66,2.988q-5.438,1.272-10.9,2.421c-2.473.52-4.97.959-7.456,1.427C174.307,102.754,174.19,102.614,174.19,101.965Z" transform="translate(-81.286 -68.272)" fill="#707070"/>
    <path id="Path_16" data-name="Path 16" d="M51.012,100.964c.023.31.053.62.064.936.035.719-.076.83-.772.719-.924-.152-1.848-.3-2.766-.485-3.491-.7-6.982-1.368-10.461-2.111a71.457,71.457,0,0,1-10.812-2.965,20.361,20.361,0,0,1-5.538-3.006,11.31,11.31,0,0,1-3.877-6.239c-.275-1.064-.456-2.152-.667-3.228-.105-.526.006-.62.538-.573,3.6.31,7.2.626,10.794.912q6.8.553,13.6,1.064c2.631.193,5.269.351,7.906.5.538.029.8.216.842.772q.57,6.85,1.164,13.7C51.03,100.958,51.018,100.964,51.012,100.964Z" transform="translate(-15.659 -68.289)" fill="#707070"/>
  </g>
</svg>
