<svg id="lifan" xmlns="http://www.w3.org/2000/svg" width="106.057" height="78.955" viewBox="0 0 106.057 78.955">
  <g id="Group_4" data-name="Group 4" transform="translate(0 0)">
    <path id="Path_9" data-name="Path 9" d="M85.018,16.239c12.214.05,23.729,2.751,34.168,9.28,7.333,4.587,13.146,10.555,16.54,18.676a29.3,29.3,0,0,1,2.08,15.215A32.338,32.338,0,0,1,129.958,76.6c-8.026,9.319-18.443,14.488-30.241,16.979a67.231,67.231,0,0,1-41.34-3.833c-8.9-3.833-16.535-9.38-21.566-17.849-6.434-10.827-6.451-21.849.111-32.6,6.3-10.322,16.036-16.2,27.257-19.885A65.4,65.4,0,0,1,85.018,16.239Zm9.535,51.784c.2-.5.277-.76.4-1q8.578-16.2,17.139-32.4a1.657,1.657,0,0,1,1.742-1.037c1.514.055,3.034.017,4.554.017.067-.172.133-.349.2-.521-2.346-1.647-4.576-3.5-7.055-4.914-13.29-7.571-27.4-8.925-41.972-4.731-10.844,3.117-19.83,9.036-25.227,19.3-4.5,8.559-4.376,17.289-.017,25.925.655,1.3,1.475,2.507,2.319,3.922.316-.466.46-.643.566-.843q9.868-18.371,19.708-36.758a2.194,2.194,0,0,1,2.258-1.4c3.694.072,7.388.028,11.088.028H85.7c-1.193,3.977-2.152,7.765-3.472,11.421a32.517,32.517,0,0,1-7.582,12.142A96.917,96.917,0,0,1,58.1,69.854c-2.174,1.392-4.387,2.729-6.578,4.088.022.083.044.172.067.255H69.77a33.8,33.8,0,0,0-1.692,3.261,1.612,1.612,0,0,1-1.814,1.115c-4.071-.039-8.137-.017-12.208-.011-.466,0-.932.044-1.792.089.738.621,1.115.96,1.514,1.27A48.626,48.626,0,0,0,80.121,89.933c11.964,1.015,23.169-1.315,33.308-7.926a34.118,34.118,0,0,0,13.639-16.1,26.7,26.7,0,0,0,1.22-16.6,29.918,29.918,0,0,0-5.425-11.227c-2.723,5.414-4.415,11.188-8.425,15.725a83.5,83.5,0,0,1-13.445,11.631l.15.333h11.01c-.893,2.335-1,2.391-3.151,2.307-1.353-.055-2.712-.05-4.066-.05C101.537,68.018,98.136,68.023,94.553,68.023Z" transform="translate(-31.994 -16.238)" fill="#707070"/>
    <path id="Path_10" data-name="Path 10" d="M101.75,86.5c1.986-3.733,3.805-7.189,5.647-10.628,4.909-9.169,9.845-18.321,14.721-27.512a1.738,1.738,0,0,1,1.814-1.115c4.349.055,8.7.039,13.046.055.4,0,.81.05,1.431.089-.5,1.7-.893,3.267-1.437,4.781-2.4,6.673-5.713,12.868-10.971,17.666-4.338,3.955-9.158,7.383-13.773,11.038a7.836,7.836,0,0,0-1.7,1.6H124.7c-.693,1.353-1.22,2.474-1.842,3.533a1.228,1.228,0,0,1-.921.466C115.306,86.515,108.672,86.5,101.75,86.5Z" transform="translate(-63.058 -30.048)" fill="#707070"/>
  </g>
</svg>
