<svg id="mvm" xmlns="http://www.w3.org/2000/svg" width="138.378" height="45.673" viewBox="0 0 138.378 45.673">
  <g id="Group_7" data-name="Group 7" transform="translate(0 0)">
    <path id="Path_22" data-name="Path 22" d="M19.7,77.59V76.172c.032-.167.064-.327.1-.494a7.452,7.452,0,0,1,2.335-4.24,37.47,37.47,0,0,1,3.015-2.5,40.375,40.375,0,0,1,9.788-5.522,112.071,112.071,0,0,1,17.382-5.054c3.662-.77,7.357-1.43,11.045-2.072,2.437-.423,4.887-.827,7.35-1.065,3.1-.3,6.215-.475,9.332-.635,4.791-.244,9.583-.3,14.38-.186q5.811.135,11.6.629,5.6.491,11.16,1.353A114.161,114.161,0,0,1,133.594,60.1a88.645,88.645,0,0,1,13.469,5.163,28.957,28.957,0,0,1,7.2,4.785,14.561,14.561,0,0,1,3.534,4.926,3.014,3.014,0,0,1,.263.93c.039.776.013,1.552.013,2.328a.961.961,0,0,1-.058.359c-.218.52-.417,1.045-.68,1.539a16.773,16.773,0,0,1-4.849,5.458,38.751,38.751,0,0,1-10.147,5.484,128.689,128.689,0,0,1-22.52,5.946q-4.522.8-9.076,1.392c-2.9.378-5.818.641-8.73.917-1.847.173-3.707.257-5.555.391-1.155.083-2.309.276-3.464.289-4.208.038-8.422.013-12.636.013-.257,0-.52-.019-.776-.038-1.616-.122-3.233-.244-4.849-.385-2.476-.212-4.958-.41-7.427-.68-1.219-.128-2.418-.4-3.63-.6-2.687-.443-5.388-.821-8.056-1.328a147.39,147.39,0,0,1-14.374-3.56c-1.424-.423-2.854-.834-4.24-1.353-1.251-.468-2.45-1.078-3.662-1.642a60.44,60.44,0,0,1-8.973-4.945,6.8,6.8,0,0,1-1.9-1.687,14.549,14.549,0,0,1-2.392-4.4C19.912,78.809,19.822,78.193,19.7,77.59ZM125.378,64.063a1.751,1.751,0,0,0-1.231-.494,16.252,16.252,0,0,1-2.886-.487c-4.605-1-9.255-1.809-13.906-2.553-1.911-.3-3.816-.673-5.741-.872-3.816-.4-7.652-.552-11.494-.571-3.816-.019-7.633.038-11.436.353-3.22.263-6.433.584-9.647.93a96.756,96.756,0,0,0-9.858,1.777,72.415,72.415,0,0,0-12.123,3.573A45.894,45.894,0,0,0,36.441,71.7a7.776,7.776,0,0,0-3.2,4.483,5.03,5.03,0,0,0,.391,3.759,13.379,13.379,0,0,0,2.848,3.528,33,33,0,0,0,4.759,3.252,1.268,1.268,0,0,0,1.45-.122c.68-.455,1.366-.9,2.059-1.341a23.174,23.174,0,0,0,6.529-6.69c.436-.629.847-1.276,1.257-1.918a10.962,10.962,0,0,0,.738-1.231c.609-1.328,1.167-2.681,1.77-4.009a18.548,18.548,0,0,1,2.168-3.836,5.246,5.246,0,0,1,4.483-2.046,2.384,2.384,0,0,1,2.283,1.385,4.658,4.658,0,0,1,.539,2.1c-.006.808-.026,1.616-.077,2.424-.135,2.142-.3,4.285-.436,6.427-.026.346-.006.693-.006,1.071a2.722,2.722,0,0,0,1.1-1.982.659.659,0,0,1,.109-.308c2.091-3.136,4.169-6.279,6.51-9.236a7.024,7.024,0,0,1,2.79-2.117,20.684,20.684,0,0,1,4.285-1.174c.038-.006.077.019.141.038-.141,1.052-.276,2.085-.423,3.124-.494,3.451-1.071,6.889-1.232,10.378a8.464,8.464,0,0,0,.859,4.708c.378.667.8,1.3,1.187,1.963a.471.471,0,0,1,.071.359,5.365,5.365,0,0,1-3.579,3.04,3.2,3.2,0,0,1-2.559-.186,4.369,4.369,0,0,1-2.264-3.476,30.92,30.92,0,0,1,.122-3.265,31.076,31.076,0,0,1,.449-4.426c.1-.545.122-1.1.18-1.648-.032-.013-.064-.019-.1-.032a4.437,4.437,0,0,0-.282.4c-.641,1-1.225,2.046-1.931,3-1.924,2.63-3.9,5.227-5.85,7.838a4.454,4.454,0,0,1-2.3,1.578,3.25,3.25,0,0,1-4.24-2.213,7.249,7.249,0,0,1-.25-2.54c.122-1.931.289-3.855.43-5.785.058-.757.09-1.507.135-2.322a2.691,2.691,0,0,0-1.122,1.9.959.959,0,0,1-.128.443c-.8,1.148-1.565,2.309-2.405,3.419a30.73,30.73,0,0,1-4.811,4.766,8.733,8.733,0,0,1-4.592,2.04c-.391.051-.776.083-1.167.128a26.71,26.71,0,0,0,3.425,1.719,79.532,79.532,0,0,0,8.659,2.6,136.442,136.442,0,0,0,16.766,3.015,138.119,138.119,0,0,0,14.374.988c2.611.038,5.227.038,7.832-.083q4.666-.221,9.326-.686c2.5-.25,4.977-.654,7.46-1.013a100.667,100.667,0,0,0,12.693-2.572A57.713,57.713,0,0,0,136.589,86.1a20.14,20.14,0,0,0,6.273-5.3,5.6,5.6,0,0,0,1.353-3.624,6.834,6.834,0,0,0-1.9-4.573,23.634,23.634,0,0,0-5.728-4.3,54.644,54.644,0,0,0-7.492-3.322c-.417-.16-.815-.366-1.219-.564a3.354,3.354,0,0,0-1.854-.3c0,.917-.051,1.8.013,2.668.212,2.912.455,5.83.706,8.742a25.869,25.869,0,0,0,.378,3.079,11.567,11.567,0,0,0,2.033,4.451c.378.513.8,1,1.212,1.52a7.578,7.578,0,0,1-4.259,2.29,3.523,3.523,0,0,1-2.027-.192,5.445,5.445,0,0,1-3.034-3.784,14.534,14.534,0,0,1-.276-1.834c-.212-1.911-.4-3.823-.616-5.734-.064-.571-.167-1.142-.25-1.713a1.816,1.816,0,0,0-.346.526c-1.155,2.489-2.29,4.984-3.47,7.46-.6,1.257-1.251,2.5-1.911,3.72a3.222,3.222,0,0,1-1.507,1.456,4.724,4.724,0,0,1-3.489.154.652.652,0,0,1-.494-.526c-.231-1.039-.455-2.085-.718-3.117a45.154,45.154,0,0,1-1.321-8.582q-.029-.452-.058-.924c-.128.1-.218.218-.327.231-.237.032-.269.2-.334.366a43.683,43.683,0,0,1-4.907,9.4,6.87,6.87,0,0,1-2.1,2.213,7.882,7.882,0,0,1-6.234.93c-.135-.032-.257-.09-.436-.148.148-.09.25-.141.34-.2a21.291,21.291,0,0,0,2.482-1.559,22.96,22.96,0,0,0,6.183-8.242,33.012,33.012,0,0,0,1.809-5.747,11.8,11.8,0,0,1,2.476-5.356,3.173,3.173,0,0,1,2.38-1.212,3.606,3.606,0,0,1,3.111,1.379,8.508,8.508,0,0,1,1.828,4.323c.224,2.136.4,4.278.616,6.414.077.776.18,1.552.276,2.328a.536.536,0,0,0,.237-.263c.782-1.629,1.514-3.29,2.367-4.888,1.058-1.982,2.194-3.925,3.348-5.85a7.513,7.513,0,0,1,4.2-3.271C124.377,64.428,124.852,64.249,125.378,64.063Z" transform="translate(-19.7 -54.355)" fill="#707070"/>
    <path id="Path_23" data-name="Path 23" d="M136.8,71.319c-1.341,3-2.655,6-4.028,8.98a56.528,56.528,0,0,1-4.426,8.062,12.952,12.952,0,0,1-3.194,3.541,7.675,7.675,0,0,1-3.913,1.52,3.74,3.74,0,0,1-2.578-.93,2.059,2.059,0,0,1-.654-1.539,45.215,45.215,0,0,1,.827-13.078c.269-1.321.539-2.643.84-3.957a.96.96,0,0,1,.353-.494,2.623,2.623,0,0,0,.853-.827,1.788,1.788,0,0,1,.744-.545,1.611,1.611,0,0,1,.673-.205,22.93,22.93,0,0,0,3.489-.6c.154-.026.308-.026.494-.038-1.078,5.452-2.174,10.872-2.206,16.42.026.013.058.019.083.032.244-.372.487-.744.725-1.116,1.7-2.707,3.156-5.555,4.58-8.409.481-.962.969-1.931,1.411-2.912a5.916,5.916,0,0,1,1.9-2.155,12.513,12.513,0,0,1,3.945-1.834A.514.514,0,0,0,136.8,71.319Z" transform="translate(-54.897 -60.399)" fill="#707070"/>
  </g>
</svg>
