<svg xmlns="http://www.w3.org/2000/svg" width="15.724" height="13.366" viewBox="0 0 15.724 13.366">
  <g id="office_store" data-name="office store" transform="translate(-2 -3.5)">
    <path id="Path_24" data-name="Path 24" d="M3.5,11.893a.389.389,0,0,1,.393-.393h12.58a.394.394,0,0,1,.393.393v6.29a.4.4,0,0,1-.393.393H3.893a.394.394,0,0,1-.393-.393Zm.786.393v5.5H16.08v-5.5Z" transform="translate(-0.321 -1.71)" fill="#236160" fill-rule="evenodd"/>
    <path id="Path_25" data-name="Path 25" d="M3.5,3.893A.389.389,0,0,1,3.893,3.5h12.58a.394.394,0,0,1,.393.393v6.29a.4.4,0,0,1-.393.393H3.893a.394.394,0,0,1-.393-.393Zm.786.393v5.5H16.08v-5.5Z" transform="translate(-0.321)" fill="#236160" fill-rule="evenodd"/>
    <path id="Path_26" data-name="Path 26" d="M8.286,4v6.29H7.5V4Z" transform="translate(-1.176 -0.107)" fill="#236160" fill-rule="evenodd"/>
    <path id="Path_27" data-name="Path 27" d="M12.286,4v6.29H11.5V4Z" transform="translate(-2.031 -0.107)" fill="#236160" fill-rule="evenodd"/>
    <path id="Path_28" data-name="Path 28" d="M16.286,4v6.29H15.5V4Z" transform="translate(-2.886 -0.107)" fill="#236160" fill-rule="evenodd"/>
    <path id="Path_29" data-name="Path 29" d="M9.5,14.893a.389.389,0,0,1,.393-.393h3.145a.394.394,0,0,1,.393.393v3.931a.4.4,0,0,1-.393.393H9.893a.394.394,0,0,1-.393-.393Zm.786.393v3.145h2.359V15.286Z" transform="translate(-1.603 -2.352)" fill="#236160" fill-rule="evenodd"/>
    <path id="Path_30" data-name="Path 30" d="M2,19.5H17.724v.786H2Z" transform="translate(0 -3.42)" fill="#236160" fill-rule="evenodd"/>
    <path id="Path_31" data-name="Path 31" d="M4,7.5H16.58v.786H4Z" transform="translate(-0.428 -0.855)" fill="#236160" fill-rule="evenodd"/>
  </g>
</svg>
