<svg width="23" height="22" viewBox="0 0 23 22" fill="none" xmlns="http://www.w3.org/2000/svg">
<path d="M15.417 -5.72205e-05C15.817 0.0619428 16.228 0.0949433 16.623 0.189943C17.9377 0.457261 19.1456 1.10262 20.0987 2.04679C21.0517 2.99096 21.7084 4.19285 21.988 5.50494C22.5049 7.56678 22.2819 9.74461 21.358 11.6589C20.4246 13.6892 19.0596 15.4915 17.358 16.9399C16.72 17.5039 16.058 18.0399 15.391 18.5719C15.3091 18.651 15.211 18.7114 15.1035 18.7488C14.9959 18.7863 14.8816 18.8 14.7682 18.789C14.6549 18.7779 14.5453 18.7425 14.4471 18.685C14.3488 18.6275 14.2641 18.5493 14.199 18.4559C14.1291 18.3663 14.0786 18.2632 14.0507 18.153C14.0228 18.0428 14.0181 17.9281 14.0369 17.816C14.0557 17.7039 14.0976 17.5969 14.1599 17.5019C14.2223 17.4069 14.3037 17.3258 14.399 17.2639C15.793 16.2347 17.0646 15.0493 18.189 13.7309C19.3312 12.4192 20.1264 10.8422 20.502 9.14394C20.7176 8.22466 20.7288 7.26924 20.5348 6.34516C20.3407 5.42108 19.9462 4.55086 19.379 3.79594C18.549 2.72582 17.3523 2.00085 16.0195 1.7608C14.6867 1.52076 13.3122 1.78263 12.161 2.49594C12.004 2.59094 11.854 2.69594 11.706 2.79594C11.5522 2.94197 11.3481 3.02337 11.136 3.02337C10.9239 3.02337 10.7199 2.94197 10.566 2.79594C9.49551 1.98104 8.16215 1.58941 6.821 1.69594C5.65118 1.75793 4.53337 2.1992 3.63665 2.95302C2.73994 3.70683 2.11311 4.73218 1.851 5.87394C1.39902 7.66297 1.62188 9.55581 2.47701 11.1909C3.29417 12.82 4.42437 14.272 5.80301 15.4639C7.48536 16.988 9.29946 18.3601 11.224 19.5639C11.3808 19.642 11.5092 19.7672 11.5912 19.922C11.6732 20.0768 11.7046 20.2534 11.681 20.4269C11.6667 20.6068 11.5915 20.7764 11.4679 20.9078C11.3443 21.0392 11.1796 21.1246 11.001 21.1499C10.9768 21.1589 10.9541 21.1718 10.934 21.1879H10.829C10.6617 21.1211 10.4987 21.044 10.341 20.9569C8.32763 19.701 6.43103 18.2669 4.67401 16.6719C3.08223 15.2887 1.80058 13.5849 0.913002 11.6719C-0.0121413 9.7596 -0.233446 7.58232 0.288002 5.52294C0.557604 4.24663 1.18348 3.07289 2.09305 2.13783C3.00262 1.20277 4.15863 0.544704 5.42701 0.239943C5.91742 0.132077 6.41308 0.0496336 6.91201 -0.00705719H7.486C7.55176 0.0107273 7.61855 0.0244205 7.686 0.0339432C8.85096 0.10435 9.98046 0.461612 10.974 1.07394C11.0264 1.11006 11.089 1.12855 11.1526 1.12675C11.2163 1.12495 11.2777 1.10296 11.328 1.06394C11.9556 0.674088 12.6437 0.391236 13.364 0.226944C13.837 0.126944 14.318 0.0679434 14.796 -0.00805664C14.999 -5.66402e-05 15.208 -5.72205e-05 15.417 -5.72205e-05Z" fill="#FF0606"/>
<path d="M15.465 4.47497C15.6485 4.53725 15.8278 4.61106 16.002 4.69597C16.5949 4.99358 17.1003 5.44026 17.4684 5.99216C17.8366 6.54406 18.0549 7.18221 18.102 7.84397C18.1148 8.04595 18.0519 8.24545 17.9256 8.40356C17.7992 8.56168 17.6185 8.66706 17.4187 8.69916C17.2189 8.73125 17.0143 8.68776 16.8448 8.57716C16.6753 8.46656 16.5531 8.2968 16.502 8.10097C16.466 7.94097 16.461 7.77297 16.421 7.61397C16.3455 7.2644 16.184 6.93919 15.951 6.66783C15.7181 6.39647 15.4211 6.18754 15.087 6.05997C14.911 5.9928 14.7644 5.86572 14.673 5.70109C14.5815 5.53646 14.5511 5.34484 14.587 5.15997C14.6272 4.95964 14.7379 4.78036 14.899 4.65468C15.0601 4.52899 15.2609 4.46523 15.465 4.47497Z" fill="#FF0606"/>
</svg>
