<svg xmlns="http://www.w3.org/2000/svg" width="22.488" height="22.487" viewBox="0 0 22.488 22.487">
  <g id="search_1" data-name="search 1" transform="translate(-1.25 -1.25)">
    <path id="Path_6" data-name="Path 6" d="M10.407,2.82a7.587,7.587,0,1,0,7.587,7.587.785.785,0,1,1,1.57,0A9.169,9.169,0,1,1,18.33,5.823a.79.79,0,0,1-.293,1.067A.8.8,0,0,1,16.959,6.6a7.6,7.6,0,0,0-6.583-3.8Z" fill="#707070" fill-rule="evenodd"/>
    <path id="Path_7" data-name="Path 7" d="M15.471,15.47a.771.771,0,0,1,1.109,0L22.86,21.75a.79.79,0,0,1,0,1.109.8.8,0,0,1-1.12,0L15.46,16.58a.783.783,0,0,1,0-1.12Z" transform="translate(0.65 0.651)" fill="#707070" fill-rule="evenodd"/>
  </g>
</svg>
