<svg id="xtrim" xmlns="http://www.w3.org/2000/svg" width="140.172" height="20.172" viewBox="0 0 140.172 20.172">
  <g id="Group_6" data-name="Group 6" transform="translate(0 0)">
    <path id="Path_17" data-name="Path 17" d="M220.2,89.513c-1.406.006-2.819.006-4.226.013a.5.5,0,0,1-.561-.574q.029-4.713.058-9.426a1.706,1.706,0,0,0-.058-.548.322.322,0,0,0-.561-.161,2.489,2.489,0,0,0-.5.574c-.852,1.361-1.684,2.735-2.529,4.1-.768,1.239-1.542,2.471-2.31,3.71-.394.632-.742,1.3-1.181,1.9a1.2,1.2,0,0,1-.806.413c-1.219.045-2.445.019-3.671.019a1.076,1.076,0,0,1-.994-.652c-.723-1.264-1.51-2.49-2.271-3.729-.632-1.039-1.265-2.084-1.9-3.123-.7-1.142-1.381-2.29-2.1-3.419-.11-.168-.361-.245-.548-.361a2.132,2.132,0,0,0-.284.652c-.032.49.032.981.039,1.477.013,2.852.013,5.71.032,8.561,0,.406-.174.594-.581.594-1.174,0-2.342.006-3.516.006-.426,0-.6-.219-.6-.639q.01-9.077.019-18.148c0-1.174-.29-1.245,1.232-1.232q1.452.019,2.9,0a1.063,1.063,0,0,1,1.09.639c.51.974,1.129,1.884,1.7,2.826.652,1.071,1.29,2.148,1.942,3.226.806,1.335,1.613,2.664,2.419,4s1.587,2.677,2.413,4a5.635,5.635,0,0,0,.761.813,5.031,5.031,0,0,0,.7-.742c1.381-2.271,2.729-4.561,4.1-6.839q2.081-3.464,4.168-6.916a4.124,4.124,0,0,1,.439-.684.921.921,0,0,1,.542-.29c1.548-.019,3.09,0,4.639,0Q220.19,79.51,220.2,89.513Z" transform="translate(-80.037 -69.448)" fill="#707070"/>
    <path id="Path_18" data-name="Path 18" d="M139.767,69.5c3.993,0,7.981.006,11.974-.006a3.146,3.146,0,0,1,2.819,1.658,7.915,7.915,0,0,1,1.013,4.535,7.2,7.2,0,0,1-.523,2.781,4.915,4.915,0,0,1-2.161,2.342c-.6.348-.6.5-.342,1.148.516,1.271.968,2.568,1.484,3.845.426,1.065.89,2.11,1.355,3.161.161.355.058.581-.316.581-1.187-.006-2.374-.026-3.568-.019a.923.923,0,0,1-.961-.723c-.458-1.271-.987-2.516-1.471-3.781-.394-1.026-.794-2.052-1.148-3.09-.277-.806-.5-.994-1.361-.994-4.787.006-9.58,0-14.368.006-.155,0-.3-.006-.458,0-.587.032-.787.232-.794.826q-.01,3.464.006,6.929c0,.71-.1.819-.819.819h-2.7c-.652,0-.755-.123-.755-.781v-18.6c0-.555.077-.639.71-.639Zm.645,8.064c2.787,0,5.568.006,8.355-.006a2.244,2.244,0,0,0,1.077-.219,2.358,2.358,0,0,0,1.013-2.613,2.277,2.277,0,0,0-2.219-1.748c-5.587.019-11.174,0-16.761,0-.665,0-.923.258-.929.935-.013.968,0,1.935-.013,2.9a.633.633,0,0,0,.619.723,4.776,4.776,0,0,0,.606.032Q136.283,77.558,140.412,77.561Z" transform="translate(-57.161 -69.438)" fill="#707070"/>
    <path id="Path_19" data-name="Path 19" d="M47.865,89.552c-.613,0-1.226-.045-1.832.013a3.524,3.524,0,0,1-2.613-.89c-2.613-2.077-5.258-4.11-7.9-6.161a.975.975,0,0,0-1.49.019c-1.5,1.194-3.013,2.361-4.523,3.535q-1.5,1.171-3,2.355a8.175,8.175,0,0,1-1.058.787,2.472,2.472,0,0,1-1.09.335c-1.645.039-3.3.026-4.942.013a1.7,1.7,0,0,1-.49-.168,1.73,1.73,0,0,1,.284-.432c1.69-1.31,3.387-2.6,5.077-3.9,1.716-1.323,3.426-2.658,5.148-3.974.51-.394,1.039-.755,1.561-1.135a.63.63,0,0,0-.026-1.039c-1.968-1.49-3.948-2.974-5.916-4.477-1.832-1.4-3.645-2.826-5.464-4.239a3.19,3.19,0,0,1-.374-.258,3.065,3.065,0,0,1-.271-.374,1.544,1.544,0,0,1,.452-.148c1.729.006,3.464.013,5.193.071a1.972,1.972,0,0,1,1.058.381c2.071,1.561,4.116,3.155,6.168,4.735.761.587,1.523,1.187,2.277,1.787.568.452.755.471,1.335.026,1.735-1.329,3.464-2.671,5.193-4.006,1.181-.91,2.348-1.839,3.535-2.735a1.074,1.074,0,0,1,.613-.187c1.864-.039,3.735-.058,5.606-.071a1.161,1.161,0,0,1,.394.155,1.18,1.18,0,0,1-.219.3c-1.213.923-2.439,1.832-3.645,2.755q-2.671,2.032-5.322,4.084c-.748.581-1.49,1.181-2.239,1.761-.187.142-.394.265-.581.4a.666.666,0,0,0-.052,1.142c.832.606,1.658,1.232,2.484,1.852q1.606,1.21,3.2,2.426c.994.768,1.968,1.555,2.961,2.323,1.058.819,2.129,1.619,3.194,2.432a1.269,1.269,0,0,1,.239.355,1.45,1.45,0,0,1-.419.174c-.832.019-1.664.006-2.5.006C47.865,89.565,47.865,89.558,47.865,89.552Z" transform="translate(-18.93 -69.41)" fill="#707070"/>
    <path id="Path_20" data-name="Path 20" d="M89.876,69.48h13.658c.845,0,.864.032.852.845-.013.645.006,1.29,0,1.935-.006.574-.155.71-.742.71q-5.226-.01-10.445-.013c-.155,0-.3,0-.458.013a.65.65,0,0,0-.658.645c-.013.155-.013.3-.013.458q0,7.035.006,14.064v.3c.045,1.045.045,1.045-.981,1.045H88.14c-.619,0-.761-.155-.7-.761a7.51,7.51,0,0,0,.032-.761q0-6.91.006-13.813c0-1.026-.2-1.206-1.232-1.206-3.413.006-6.832.006-10.245.019-.394,0-.561-.148-.568-.535,0-.852-.032-1.7-.006-2.548.006-.142.232-.3.387-.406.084-.058.232-.013.348-.013Q83.021,69.49,89.876,69.48Z" transform="translate(-38.973 -69.422)" fill="#707070"/>
    <path id="Path_21" data-name="Path 21" d="M177.426,79.432c0-3.11.006-6.219-.006-9.329,0-.439.135-.619.581-.613,1.174.013,2.342.013,3.516,0,.413,0,.561.174.561.587q-.01,9.358-.006,18.709c0,.6-.123.723-.71.723h-3.213c-.626,0-.723-.1-.723-.748V79.432Z" transform="translate(-75.17 -69.438)" fill="#707070"/>
  </g>
</svg>
